<svg width="6220" height="1024" viewBox="0 0 6220 1024" fill="none" xmlns="http://www.w3.org/2000/svg">
<path d="M129.6 20H894.4C903.618 20 907.301 20.0099 910.279 20.1973C960.562 23.3609 1000.64 63.4378 1003.8 113.721C1003.99 116.699 1004 120.382 1004 129.6V894.4C1004 903.618 1003.99 907.301 1003.8 910.279C1000.64 960.562 960.562 1000.64 910.279 1003.8C907.301 1003.99 903.618 1004 894.4 1004H129.6C120.382 1004 116.699 1003.99 113.721 1003.8C63.4378 1000.64 23.3609 960.562 20.1973 910.279C20.0099 907.301 20 903.618 20 894.4V129.6C20 120.382 20.0099 116.699 20.1973 113.721C23.3609 63.4378 63.4378 23.3609 113.721 20.1973C116.699 20.0099 120.382 20 129.6 20Z" stroke="#828282" stroke-width="40"/>
<path d="M249 249.5C249 226.294 258.219 204.038 274.628 187.628C291.038 171.219 313.294 162 336.5 162H537.138C554.537 162.015 571.217 168.939 583.513 181.25L754.794 352.488C767.088 364.79 773.996 381.47 774 398.863V774.5C774 797.706 764.781 819.962 748.372 836.372C731.962 852.781 709.707 862 686.5 862H547.813C552.625 848.306 555.25 833.563 555.25 818.25H686.5C698.103 818.25 709.231 813.641 717.436 805.436C725.641 797.231 730.25 786.103 730.25 774.5V424.5H577.125C559.72 424.5 543.028 417.586 530.721 405.279C518.414 392.972 511.5 376.28 511.5 358.875V205.75H336.5C324.897 205.75 313.769 210.359 305.564 218.564C297.359 226.769 292.75 237.897 292.75 249.5V578.55C279.999 567.13 265.136 558.317 249 552.606V249.5Z" fill="#828282"/>
<path d="M469.608 598.576C462.49 594.135 453.118 596.307 448.677 603.428L316.745 814.975C312.304 822.095 314.476 831.465 321.596 835.905C323.696 837.215 325.992 837.949 328.299 838.151C333.814 838.634 339.395 836.074 342.527 831.054L474.459 619.507C478.9 612.387 476.728 603.017 469.608 598.576Z" fill="#828282"/>
<path d="M377.849 665.777C377.849 634.005 352 608.156 320.228 608.156C288.458 608.156 262.609 634.005 262.609 665.777C262.609 697.548 288.458 723.397 320.229 723.397C352.001 723.397 377.849 697.548 377.849 665.777ZM320.229 693.011C305.213 693.011 292.995 680.793 292.995 665.777C292.995 650.76 305.213 638.542 320.229 638.542C335.247 638.542 347.464 650.759 347.464 665.777C347.463 680.793 335.247 693.011 320.229 693.011Z" fill="#828282"/>
<path d="M471.652 711.109C439.88 711.109 414.031 736.958 414.031 768.729C414.031 800.5 439.879 826.349 471.652 826.349C503.423 826.349 529.272 800.501 529.272 768.729C529.272 736.957 503.424 711.109 471.652 711.109ZM471.652 795.962C456.635 795.962 444.417 783.744 444.417 768.728C444.417 753.712 456.635 741.494 471.652 741.494C486.668 741.494 498.886 753.712 498.886 768.728C498.886 783.744 486.669 795.962 471.652 795.962Z" fill="#828282"/>
<path d="M2856.65 572.33L2613.95 293.453H2823.48L2974.23 479.622L3121.2 293.453H3311.14L3077.49 571.576L3348.82 883.617H3131L2958.4 676.343L2789.56 883.617H2593.6L2856.65 572.33Z" fill="#828282"/>
<path d="M3529.62 366.135C3595.19 308.098 3681.11 279.457 3786.63 279.457C3872.56 279.457 3947.93 299.807 4012 339.755L3924.56 446.783C3886.88 424.925 3843.16 414.373 3794.17 414.373C3739.15 414.373 3693.93 430.201 3658.5 461.858C3623.08 493.514 3605.74 535.722 3605.74 588.483C3605.74 641.243 3623.08 683.452 3658.5 714.354C3693.93 745.257 3739.15 761.084 3794.17 761.084C3845.42 761.084 3889.14 750.532 3924.56 728.675L4012 835.703C3950.94 875.65 3875.57 896.001 3786.63 896.001C3681.87 896.001 3595.94 866.606 3529.62 808.569C3462.53 750.533 3429.37 677.422 3429.37 589.236C3429.37 498.79 3462.53 424.925 3529.62 366.135Z" fill="#828282"/>
<path d="M4143.9 587.725C4143.9 496.525 4171.79 421.906 4227.56 365.377C4283.34 308.095 4358.71 280.207 4453.68 280.207C4542.62 280.207 4611.21 309.602 4658.69 368.392L4661.71 366.885V293.02H4838.83V883.184H4661.71V813.088L4657.18 810.827C4608.95 868.11 4541.11 895.997 4453.68 895.997C4358.71 895.997 4283.34 867.356 4227.56 810.827C4171.79 752.79 4143.9 678.925 4143.9 587.725ZM4369.26 713.597C4402.43 744.499 4443.88 760.327 4494.38 760.327C4534.33 760.327 4569 750.529 4598.39 731.686C4627.79 712.089 4648.14 684.955 4658.69 648.777V526.674C4648.14 490.495 4627.79 463.361 4598.39 444.518C4569 425.675 4534.33 415.877 4494.38 415.877C4443.88 415.877 4402.43 431.705 4369.26 462.608C4336.1 493.51 4319.52 535.719 4319.52 588.479C4319.52 641.24 4336.1 682.694 4369.26 713.597Z" fill="#828282"/>
<path d="M1809.65 587.725C1809.65 496.525 1837.54 421.906 1893.32 365.377C1949.09 308.095 2024.46 280.207 2119.43 280.207C2208.37 280.207 2276.96 309.602 2324.44 368.392L2327.46 366.885V293.02H2504.58V883.184H2327.46V813.088L2322.94 810.827C2274.7 868.11 2206.86 895.997 2119.43 895.997C2024.46 895.997 1949.09 867.356 1893.32 810.827C1837.54 752.79 1809.65 678.925 1809.65 587.725ZM2035.02 713.597C2068.18 744.499 2109.63 760.327 2160.13 760.327C2200.08 760.327 2234.75 750.529 2264.15 731.686C2293.54 712.089 2313.89 684.955 2324.44 648.777V526.674C2313.89 490.495 2293.54 463.361 2264.15 444.518C2234.75 425.675 2200.08 415.877 2160.13 415.877C2109.63 415.877 2068.18 431.705 2035.02 462.608C2001.85 493.51 1985.27 535.719 1985.27 588.479C1985.27 641.24 2001.85 682.694 2035.02 713.597Z" fill="#828282"/>
<path d="M5027.26 881.676V291.513H5220.21V397.034H5223.22C5266.94 323.169 5334.77 283.976 5426.73 280.207C5429.74 280.207 5432.76 280.207 5435.77 280.207C5441.8 280.207 5448.59 280.961 5457.63 281.715V430.198C5441.8 427.183 5424.47 424.922 5404.12 424.922C5311.41 430.951 5252.62 471.652 5228.5 548.532V881.676H5027.26V881.676Z" fill="#828282"/>
<path d="M5640.06 366.135C5704.87 308.098 5787.03 279.457 5887.28 279.457C5985.26 279.457 6065.15 308.098 6126.96 364.627C6188.76 421.156 6219.67 496.529 6219.67 590.744C6219.67 593.005 6219.67 597.527 6218.91 604.311C6218.16 611.094 6218.16 616.37 6218.16 619.385H5713.92C5718.44 665.362 5738.04 702.294 5771.96 728.674C5805.87 755.808 5848.84 768.622 5900.09 768.622C5968.68 768.622 6026.71 743.749 6072.69 694.757L6177.46 770.129C6105.1 853.038 6007.87 894.493 5886.52 894.493C5785.52 894.493 5702.61 865.852 5637.79 808.569C5572.97 751.286 5540.56 678.175 5540.56 589.236C5541.32 498.036 5574.48 424.171 5640.06 366.135ZM5717.69 531.954H6050.08C6043.3 487.484 6025.21 453.567 5996.56 430.201C5967.17 406.836 5931.74 394.776 5888.78 394.776C5847.33 394.776 5810.4 406.836 5778.74 430.955C5746.33 455.074 5725.98 488.991 5717.69 531.954Z" fill="#828282"/>
<path d="M1612.92 759.619C1585.03 759.619 1564.68 752.835 1553.38 738.514C1542.07 724.947 1536.04 699.321 1536.04 662.388V424.966H1708.64V299.095H1536.04V128L1224 424.213H1355.15V706.858C1355.15 764.141 1371.73 809.364 1405.65 842.528C1438.81 876.445 1487.8 893.027 1551.87 893.027C1586.54 893.027 1618.95 887.751 1649.1 877.952C1679.25 868.154 1701.86 856.848 1717.69 844.035L1678.49 742.283C1656.64 754.342 1634.78 759.619 1612.92 759.619Z" fill="#828282"/>
</svg>
