<svg width="22" height="22" viewBox="0 0 22 22" fill="none" xmlns="http://www.w3.org/2000/svg">
<g clip-path="url(#clip0_4668_4851)">
<mask id="mask0_4668_4851" style="mask-type:luminance" maskUnits="userSpaceOnUse" x="0" y="0" width="22" height="22">
<path d="M22 0H0V22H22V0Z" fill="white"/>
</mask>
<g mask="url(#mask0_4668_4851)">
<path d="M10.3545 6.44532V0H7.91806L6.62891 6.44532H10.3545Z" fill="white"/>
<path d="M16.6837 6.44532H21.748L19.3321 0.405368C19.2339 0.160488 18.9972 0 18.7335 0H15.3945L16.6837 6.44532Z" fill="white"/>
<path d="M1.65041 9.91929C2.13823 10.2044 2.69652 10.3555 3.26551 10.3555C4.31856 10.3555 5.25514 9.84752 5.84364 9.0645C6.43214 9.84752 7.36873 10.3555 8.42176 10.3555C9.47481 10.3555 10.4114 9.84752 10.9999 9.0645C11.5884 9.84752 12.525 10.3555 13.578 10.3555C14.6311 10.3555 15.5676 9.84752 16.1561 9.0645C16.7446 9.84752 17.6812 10.3555 18.7343 10.3555C19.3033 10.3555 19.8616 10.2044 20.3481 9.91929C21.1623 9.44453 21.6924 8.66722 21.8728 7.77734H0.126953C0.307464 8.66718 0.83727 9.44453 1.65041 9.91929Z" fill="white"/>
<path d="M2.66597 0.405368L0.25 6.44532H5.31433L6.60349 0H3.26457C3.00081 0 2.76414 0.160488 2.66597 0.405368Z" fill="white"/>
<path d="M11.6895 0V6.44532H15.415L14.1259 0H11.6895Z" fill="white"/>
<path d="M16.1562 10.832C15.4066 11.3532 14.5053 11.6453 13.5781 11.6453C12.651 11.6453 11.7496 11.3532 11 10.832C10.2504 11.3532 9.34901 11.6453 8.42186 11.6453C7.49474 11.6453 6.59338 11.3532 5.84375 10.832C5.09412 11.3532 4.19276 11.6453 3.26564 11.6453C2.59325 11.6453 1.93415 11.4862 1.33203 11.1983V21.3562C1.33203 21.7124 1.62031 22.0007 1.97656 22.0007H20.0234C20.3797 22.0007 20.668 21.7124 20.668 21.3562V11.1983C20.0673 11.4855 19.4078 11.6453 18.7344 11.6453C17.8072 11.6453 16.9059 11.3532 16.1562 10.832ZM14.8672 19.3796C13.0903 19.3796 11.6445 17.9339 11.6445 16.157C11.6445 14.3801 13.0903 12.9343 14.8672 12.9343C15.7289 12.9343 16.5377 13.2698 17.1463 13.8785C17.3975 14.1309 17.3975 14.5387 17.1457 14.7905C16.8939 15.041 16.4854 15.0417 16.2336 14.7899C15.8692 14.4242 15.3839 14.2234 14.8672 14.2234C13.801 14.2234 12.9336 15.0907 12.9336 16.157C12.9336 17.2232 13.801 18.0906 14.8672 18.0906C15.7064 18.0906 16.4151 17.5501 16.682 16.8015H15.5117C15.1555 16.8015 14.8672 16.5132 14.8672 16.157C14.8672 15.8007 15.1555 15.5124 15.5117 15.5124H17.4453C17.8016 15.5124 18.0899 15.8007 18.0899 16.157C18.0899 17.9339 16.6441 19.3796 14.8672 19.3796Z" fill="white"/>
</g>
</g>
<defs>
<clipPath id="clip0_4668_4851">
<rect width="22" height="22" fill="white"/>
</clipPath>
</defs>
</svg>
