<svg width="64" height="65" viewBox="0 0 64 65" fill="none" xmlns="http://www.w3.org/2000/svg">
<g clip-path="url(#clip0_4678_4897)">
<mask id="mask0_4678_4897" style="mask-type:luminance" maskUnits="userSpaceOnUse" x="0" y="0" width="64" height="65">
<path d="M64 0.5H0V64.5H64V0.5Z" fill="white"/>
</mask>
<g mask="url(#mask0_4678_4897)">
<path d="M50.6046 12.3438C49.7479 12.3438 49.0508 13.0409 49.0508 13.8975C49.0508 14.7542 49.7479 15.4513 50.6046 15.4513C51.4613 15.4513 52.1582 14.7543 52.1582 13.8975C52.1582 13.0407 51.4613 12.3438 50.6046 12.3438Z" fill="white"/>
<path d="M32.001 18.7266C24.4058 18.7266 18.2266 24.9058 18.2266 32.501C18.2266 40.0963 24.4058 46.2756 32.001 46.2756C39.5964 46.2756 45.7756 40.0964 45.7756 32.5012C45.7756 24.9059 39.5964 18.7266 32.001 18.7266Z" fill="white"/>
<path d="M46.4554 0.5H17.5446C7.8705 0.5 0 8.3705 0 18.0447V46.9554C0 56.6297 7.8705 64.5 17.5446 64.5H46.4554C56.1297 64.5 64 56.6295 64 46.9554V18.0447C64 8.3705 56.1297 0.5 46.4554 0.5ZM32 50.054C22.3206 50.054 14.4461 42.1794 14.4461 32.5C14.4461 22.8206 22.3208 14.9462 32 14.9462C41.6792 14.9462 49.554 22.8208 49.554 32.5C49.554 42.1792 41.6792 50.054 32 50.054ZM50.6039 19.2295C47.6631 19.2295 45.2707 16.837 45.2707 13.8962C45.2707 10.9555 47.6631 8.56287 50.6039 8.56287C53.5446 8.56287 55.9372 10.9554 55.9372 13.8961C55.9372 16.8369 53.5446 19.2295 50.6039 19.2295Z" fill="white"/>
</g>
</g>
<defs>
<clipPath id="clip0_4678_4897">
<rect width="64" height="64" fill="white" transform="translate(0 0.5)"/>
</clipPath>
</defs>
</svg>
