<svg width="64" height="65" viewBox="0 0 64 65" fill="none" xmlns="http://www.w3.org/2000/svg">
<path d="M64 11.9674C61.6042 13.0299 59.1979 13.832 56.5313 14.1029C59.1979 12.4987 61.3333 9.83203 62.3958 6.89453C59.7292 8.4987 57.0625 9.5612 54.1354 10.1029C51.4688 7.4362 48 5.83203 44.2708 5.83203C37.0625 5.83203 31.1979 11.6966 31.1979 18.8945C31.1979 19.9674 31.1979 21.0299 31.4688 21.832C20.5313 21.3008 10.9375 16.2279 4.53125 8.22786C3.19792 10.1029 2.66667 12.4987 2.66667 14.8945C2.66667 19.4362 5.0625 23.4362 8.53125 25.832C6.39583 25.5612 4.27083 25.0299 2.66667 24.2279C2.66667 24.2279 2.66667 24.2279 2.66667 24.4987C2.66667 30.8945 7.19792 36.2279 13.0625 37.3008C12 37.5612 10.9375 37.832 9.60417 37.832C8.80208 37.832 8 37.832 7.19792 37.5612C8.80208 42.8945 13.6042 46.6341 19.4687 46.6341C14.9375 50.1029 9.33333 52.2279 3.19792 52.2279C2.13542 52.2279 1.0625 52.2279 0 51.9674C5.86458 55.6966 12.8021 57.832 20 57.832C44.2708 57.832 57.3333 37.832 57.3333 20.4987C57.3333 19.9674 57.3333 19.4362 57.3333 18.8945C60 17.0299 62.1354 14.6341 64 11.9674Z" fill="white"/>
</svg>
