<svg width="64" height="64" viewBox="0 0 64 64" fill="none" xmlns="http://www.w3.org/2000/svg">
<path d="M30.8974 61V60.9974H30.912H30.9155C38.8547 60.9436 44.5195 58.9043 49.1863 54.3436C55.3239 48.3482 55.1441 40.8136 53.112 36.1779C51.6453 32.835 48.8605 30.1433 45.0945 28.3765L45.0938 28.376C44.9247 28.2971 44.7545 28.22 44.5823 28.1446C44.2975 24.0137 42.9874 20.6967 40.7218 18.3881C38.3932 16.0154 35.1124 14.7663 31.0705 14.7412H31.0672H30.9608C26.1016 14.7412 22.0184 16.7787 19.5033 20.5099L19.2139 20.9392L19.6441 21.228L23.9705 24.1308L24.4006 24.4194L24.6899 23.9902C26.3516 21.5247 28.9634 20.9784 30.9631 20.9784H31.0338C33.5298 20.9951 35.3204 21.7009 36.4554 22.9916C37.1771 23.8118 37.7131 24.925 38.0354 26.3424C35.9058 26.0441 33.6304 25.9636 31.2214 26.0984C27.534 26.305 24.3659 27.431 22.0906 29.3939C19.7041 31.4538 18.4727 34.2958 18.6413 37.3837C18.8146 40.5621 20.4396 43.2967 23.1908 45.0735C25.5073 46.5695 28.4703 47.2884 31.5252 47.1242C35.5632 46.9073 38.7981 45.371 41.0817 42.5342C42.655 40.5817 43.6996 38.0613 44.229 35.0306C45.6896 36.0233 46.764 37.2541 47.3869 38.6756C48.6112 41.4652 48.6964 46.0906 44.8157 49.8841C41.3847 53.2381 37.2566 54.7114 30.8951 54.758C23.8437 54.7073 18.5968 52.5004 15.1988 48.2757C12.002 44.3011 10.3121 38.5101 10.2482 30.9977C10.31 23.4876 12 17.6966 15.1988 13.7201C18.5969 9.49531 23.8437 7.28821 30.8951 7.23725C36.2403 7.27657 40.557 8.52063 43.8622 10.9102C47.1649 13.2979 49.5061 16.8643 50.8397 21.6383L50.979 22.1367L51.4784 21.9977L56.5008 20.6004L57 20.4615L56.8605 19.9633C55.2306 14.1279 52.2675 9.50731 48.0354 6.2589C43.5333 2.80392 37.7622 1.04521 30.9157 1.00002L30.9123 1.00001L30.8783 1L30.8748 1.00002C21.9412 1.0603 14.9982 4.00644 10.328 9.81698C6.17872 14.9747 4.07087 22.1107 4.00003 30.9744L4.00002 30.9786L4 31.0212L4.00003 31.0253C4.07087 39.8869 6.17871 47.0249 10.328 52.1828C14.966 57.9504 21.8393 60.896 30.6806 60.9979L30.6824 61H30.8769H30.8804H30.8974ZM33.366 32.2752H33.4624C35.1748 32.2807 36.782 32.4321 38.2581 32.7139C37.8882 36.238 36.813 38.2101 35.558 39.3305C34.2463 40.5015 32.6521 40.8207 31.1931 40.8989C29.6311 40.9829 28.063 40.6801 26.8844 40.017C25.7183 39.3608 24.9587 38.373 24.8864 37.0469C24.8173 35.7725 25.3819 34.679 26.51 33.8518C27.6538 33.0132 29.3809 32.4513 31.5778 32.3275L31.5789 32.3275C32.1857 32.2919 32.7801 32.2752 33.366 32.2752Z" fill="white"/>
<path d="M31.2214 26.0984C33.6304 25.9636 35.9058 26.0441 38.0354 26.3424C37.7131 24.925 37.1771 23.8118 36.4554 22.9916C35.3204 21.7009 33.5298 20.9951 31.0338 20.9784H30.9631C28.9634 20.9784 26.3516 21.5247 24.6899 23.9902L24.4006 24.4194L23.9705 24.1308L19.6441 21.228L19.2139 20.9392L19.5033 20.5099C22.0184 16.7787 26.1016 14.7412 30.9608 14.7412H31.0672H31.0705C35.1124 14.7663 38.3932 16.0154 40.7218 18.3881C42.9874 20.6967 44.2975 24.0137 44.5823 28.1446C44.7545 28.22 44.9247 28.2971 45.0938 28.376L45.0945 28.3765C48.8605 30.1433 51.6453 32.835 53.112 36.1779C55.1441 40.8136 55.3239 48.3482 49.1863 54.3436C44.5195 58.9043 38.8547 60.9436 30.9155 60.9974H30.912H30.8974V61H30.8804H30.8769H30.6824L30.6806 60.9979C21.8393 60.896 14.966 57.9504 10.328 52.1828C6.17871 47.0249 4.07087 39.8869 4.00003 31.0253L4 31.0212L4.00002 30.9786L4.00003 30.9744C4.07087 22.1107 6.17872 14.9747 10.328 9.81698C14.9982 4.00644 21.9412 1.0603 30.8748 1.00002L30.8783 1L30.9123 1.00001L30.9157 1.00002C37.7622 1.04521 43.5333 2.80392 48.0354 6.2589C52.2675 9.50731 55.2306 14.1279 56.8605 19.9633L57 20.4615L56.5008 20.6004L51.4784 21.9977L50.979 22.1367L50.8397 21.6383C49.5061 16.8643 47.1649 13.2979 43.8622 10.9102C40.557 8.52063 36.2403 7.27657 30.8951 7.23725C23.8437 7.28821 18.5969 9.49531 15.1988 13.7201C12 17.6966 10.31 23.4876 10.2482 30.9977C10.3121 38.5101 12.002 44.3011 15.1988 48.2757C18.5968 52.5004 23.8437 54.7073 30.8951 54.758C37.2566 54.7114 41.3847 53.2381 44.8157 49.8841M31.2214 26.0984L31.2504 26.6149M31.2214 26.0984C27.534 26.305 24.3659 27.431 22.0906 29.3939C19.7041 31.4538 18.4727 34.2958 18.6413 37.3837C18.8146 40.5621 20.4396 43.2967 23.1908 45.0735M23.1908 45.0735L23.4725 44.6392M23.1908 45.0735C25.5073 46.5695 28.4703 47.2884 31.5252 47.1242C35.5632 46.9073 38.7981 45.371 41.0817 42.5342C42.655 40.5817 43.6996 38.0613 44.229 35.0306C45.6896 36.0233 46.764 37.2541 47.3869 38.6756C48.6112 41.4652 48.6964 46.0906 44.8157 49.8841M44.8157 49.8841L45.1785 50.2537M33.366 32.2752H33.4624C35.1748 32.2807 36.782 32.4321 38.2581 32.7139C37.8882 36.238 36.813 38.2101 35.558 39.3305C34.2463 40.5015 32.6521 40.8207 31.1931 40.8989C29.6311 40.9829 28.063 40.6801 26.8844 40.017C25.7183 39.3608 24.9587 38.373 24.8864 37.0469C24.8173 35.7725 25.3819 34.679 26.51 33.8518C27.6538 33.0132 29.3809 32.4513 31.5778 32.3275L31.5789 32.3275C32.1857 32.2919 32.7801 32.2752 33.366 32.2752Z" stroke="white" stroke-width="2"/>
</svg>
