<svg width="64" height="65" viewBox="0 0 64 65" fill="none" xmlns="http://www.w3.org/2000/svg">
<path d="M40.9594 14.5786H47.3594C48.0644 14.5786 48.6394 14.0036 48.6394 13.2986V4.67359C48.6394 4.00359 48.1244 3.44859 47.4544 3.39859C45.4194 3.25359 41.4394 3.05859 38.5794 3.05859C30.7194 3.05859 25.5994 7.7686 25.5994 16.3286V24.8186H16.6394C15.9344 24.8186 15.3594 25.3936 15.3594 26.0986V35.0586C15.3594 35.7636 15.9344 36.3386 16.6394 36.3386H25.5994V60.6586C25.5994 61.3636 26.1744 61.9386 26.8794 61.9386H35.8394C36.5444 61.9386 37.1194 61.3636 37.1194 60.6586V36.3386H46.3644C47.0144 36.3386 47.5644 35.8486 47.6344 35.1986L48.6294 26.2386C48.7144 25.4836 48.1244 24.8186 47.3594 24.8186H37.1194V18.4186C37.1194 16.2986 38.8394 14.5786 40.9594 14.5786Z" fill="white"/>
</svg>
