<svg width="64" height="65" viewBox="0 0 64 65" fill="none" xmlns="http://www.w3.org/2000/svg">
<path d="M57.4698 19.0595C56.9598 16.2445 54.5298 14.1945 51.7098 13.5545C47.4898 12.6595 39.6798 12.0195 31.2298 12.0195C22.7848 12.0195 14.8498 12.6595 10.6248 13.5545C7.80984 14.1945 5.37484 16.1145 4.86484 19.0595C4.34984 22.2595 3.83984 26.7395 3.83984 32.4995C3.83984 38.2595 4.34984 42.7395 4.98984 45.9395C5.50484 48.7545 7.93484 50.8045 10.7498 51.4445C15.2298 52.3395 22.9098 52.9795 31.3598 52.9795C39.8098 52.9795 47.4898 52.3395 51.9698 51.4445C54.7848 50.8045 57.2148 48.8845 57.7298 45.9395C58.2398 42.7395 58.8798 38.1295 59.0098 32.4995C58.7498 26.7395 58.1098 22.2595 57.4698 19.0595ZM24.3198 41.4595V23.5395L39.9348 32.4995L24.3198 41.4595Z" fill="white"/>
</svg>
