<svg width="64" height="65" viewBox="0 0 64 65" fill="none" xmlns="http://www.w3.org/2000/svg">
<path d="M11.2279 19.168H11.2956C15.0143 19.168 17.332 16.5013 17.332 13.168C17.2643 9.76172 15.0143 7.16797 11.3685 7.16797C7.71745 7.16797 5.33203 9.76172 5.33203 13.168C5.33203 16.5013 7.64453 19.168 11.2279 19.168ZM5.33203 23.168H17.332V57.8346H5.33203V23.168ZM58.6654 35.8346C58.6654 28.8398 52.9935 23.168 45.9987 23.168C41.9258 23.168 38.3164 25.0951 35.9987 28.0794V23.168H23.9987V57.8346H35.9987V37.8346C35.9987 34.8867 38.3841 32.5013 41.332 32.5013C44.2799 32.5013 46.6654 34.8867 46.6654 37.8346V57.8346H58.6654C58.6654 57.8346 58.6654 37.7721 58.6654 35.8346Z" fill="white"/>
</svg>
